<svg width="340" height="95" viewBox="0 0 340 95" fill="none" xmlns="http://www.w3.org/2000/svg">
<path d="M270.779 26.486C271.103 26.006 271.547 25.616 272.111 25.316C272.687 25.016 273.341 24.866 274.073 24.866C274.925 24.866 275.693 25.076 276.377 25.496C277.073 25.916 277.619 26.516 278.015 27.296C278.423 28.064 278.627 28.958 278.627 29.978C278.627 30.998 278.423 31.904 278.015 32.696C277.619 33.476 277.073 34.082 276.377 34.514C275.693 34.946 274.925 35.162 274.073 35.162C273.329 35.162 272.675 35.018 272.111 34.73C271.559 34.43 271.115 34.046 270.779 33.578V35H268.259V21.68H270.779V26.486ZM276.053 29.978C276.053 29.378 275.927 28.862 275.675 28.43C275.435 27.986 275.111 27.65 274.703 27.422C274.307 27.194 273.875 27.08 273.407 27.08C272.951 27.08 272.519 27.2 272.111 27.44C271.715 27.668 271.391 28.004 271.139 28.448C270.899 28.892 270.779 29.414 270.779 30.014C270.779 30.614 270.899 31.136 271.139 31.58C271.391 32.024 271.715 32.366 272.111 32.606C272.519 32.834 272.951 32.948 273.407 32.948C273.875 32.948 274.307 32.828 274.703 32.588C275.111 32.348 275.435 32.006 275.675 31.562C275.927 31.118 276.053 30.59 276.053 29.978ZM291.888 29.798C291.888 30.158 291.864 30.482 291.816 30.77H284.526C284.586 31.49 284.838 32.054 285.282 32.462C285.726 32.87 286.272 33.074 286.92 33.074C287.856 33.074 288.522 32.672 288.918 31.868H291.636C291.348 32.828 290.796 33.62 289.98 34.244C289.164 34.856 288.162 35.162 286.974 35.162C286.014 35.162 285.15 34.952 284.382 34.532C283.626 34.1 283.032 33.494 282.6 32.714C282.18 31.934 281.97 31.034 281.97 30.014C281.97 28.982 282.18 28.076 282.6 27.296C283.02 26.516 283.608 25.916 284.364 25.496C285.12 25.076 285.99 24.866 286.974 24.866C287.922 24.866 288.768 25.07 289.512 25.478C290.268 25.886 290.85 26.468 291.258 27.224C291.678 27.968 291.888 28.826 291.888 29.798ZM289.278 29.078C289.266 28.43 289.032 27.914 288.576 27.53C288.12 27.134 287.562 26.936 286.902 26.936C286.278 26.936 285.75 27.128 285.318 27.512C284.898 27.884 284.64 28.406 284.544 29.078H289.278ZM298.821 27.098V31.922C298.821 32.258 298.899 32.504 299.055 32.66C299.223 32.804 299.499 32.876 299.883 32.876H301.053V35H299.469C297.345 35 296.283 33.968 296.283 31.904V27.098H295.095V25.028H296.283V22.562H298.821V25.028H301.053V27.098H298.821ZM304.378 29.978C304.378 28.97 304.576 28.076 304.972 27.296C305.38 26.516 305.926 25.916 306.61 25.496C307.306 25.076 308.08 24.866 308.932 24.866C309.676 24.866 310.324 25.016 310.876 25.316C311.44 25.616 311.89 25.994 312.226 26.45V25.028H314.764V35H312.226V33.542C311.902 34.01 311.452 34.4 310.876 34.712C310.312 35.012 309.658 35.162 308.914 35.162C308.074 35.162 307.306 34.946 306.61 34.514C305.926 34.082 305.38 33.476 304.972 32.696C304.576 31.904 304.378 30.998 304.378 29.978ZM312.226 30.014C312.226 29.402 312.106 28.88 311.866 28.448C311.626 28.004 311.302 27.668 310.894 27.44C310.486 27.2 310.048 27.08 309.58 27.08C309.112 27.08 308.68 27.194 308.284 27.422C307.888 27.65 307.564 27.986 307.312 28.43C307.072 28.862 306.952 29.378 306.952 29.978C306.952 30.578 307.072 31.106 307.312 31.562C307.564 32.006 307.888 32.348 308.284 32.588C308.692 32.828 309.124 32.948 309.58 32.948C310.048 32.948 310.486 32.834 310.894 32.606C311.302 32.366 311.626 32.03 311.866 31.598C312.106 31.154 312.226 30.626 312.226 30.014Z" fill="#757575"/>
<path d="M34.3787 74.7438C28.2494 78.2648 21.439 71.4408 24.9668 65.3387L33.3299 50.853L38.4173 59.6657C39.8807 62.2008 40.2774 65.2134 39.52 68.041C38.7627 70.8685 36.9134 73.2795 34.3787 74.7438V74.7438Z" fill="#FFCB09"/>
<path d="M65.4264 44.8868L43.9328 32.4851L34.3983 26.9619C28.2689 23.4409 21.4585 30.2717 24.9863 36.3738L38.4368 59.6653C39.9003 62.2005 40.2969 65.2131 39.5396 68.0406C38.7822 70.8682 36.9329 73.2792 34.3983 74.7435L65.4264 56.8186C66.4728 56.2133 67.3416 55.3434 67.9456 54.2963C68.5495 53.2491 68.8675 52.0615 68.8675 50.8527C68.8675 49.6438 68.5495 48.4562 67.9456 47.4091C67.3416 46.3619 66.4728 45.4921 65.4264 44.8868V44.8868Z" fill="url(#paint0_linear)"/>
<path d="M131.613 42.5037C129.063 41.101 126.2 40.3654 123.29 40.3654C120.38 40.3654 117.518 41.101 114.968 42.5037C112.505 43.9005 110.467 45.9387 109.07 48.4015C107.639 50.9491 106.903 53.8289 106.939 56.751C106.907 59.6554 107.643 62.5166 109.07 65.0461C110.462 67.512 112.499 69.553 114.961 70.9507C117.509 72.3839 120.388 73.1215 123.311 73.0891C125.932 73.1216 128.52 72.5039 130.843 71.2912C131.995 70.6887 133.059 69.9302 134.003 69.037V69.9428C133.997 70.3148 134.065 70.6843 134.205 71.0293C134.344 71.3743 134.551 71.6877 134.815 71.9508C135.078 72.2139 135.391 72.4214 135.736 72.5608C136.081 72.7002 136.451 72.7687 136.823 72.7623C137.203 72.773 137.581 72.704 137.933 72.5597C138.285 72.4154 138.603 72.1991 138.866 71.9246C139.368 71.3882 139.642 70.6774 139.629 69.9428V56.751C139.662 53.8283 138.924 50.9484 137.49 48.4015C136.101 45.9399 134.07 43.9015 131.613 42.5037V42.5037ZM134.01 56.751C134.047 58.7056 133.578 60.6364 132.648 62.356C131.755 63.9754 130.436 65.32 128.834 66.2447C127.156 67.1694 125.271 67.6543 123.355 67.6543C121.439 67.6543 119.554 67.1694 117.876 66.2447C116.266 65.314 114.936 63.9658 114.028 62.3424C113.098 60.6242 112.612 58.7013 112.612 56.7476C112.612 54.794 113.098 52.8711 114.028 51.1529C114.954 49.5004 116.309 48.129 117.95 47.1842C119.592 46.2394 121.458 45.7563 123.352 45.7863C125.264 45.7669 127.146 46.2633 128.8 47.2233C130.402 48.1645 131.722 49.5195 132.621 51.1461C133.558 52.8637 134.034 54.7947 134.003 56.751H134.01Z" fill="#181318"/>
<path d="M169.358 40.8676C168.976 40.6769 168.553 40.5789 168.126 40.5816C167.6 40.5778 167.086 40.7297 166.647 41.0182C166.208 41.3067 165.865 41.7189 165.66 42.2025L155.778 63.9957L145.713 42.2433C145.513 41.7628 145.174 41.353 144.74 41.0665C144.305 40.7801 143.795 40.6302 143.275 40.6361C142.87 40.6363 142.471 40.732 142.11 40.9153C141.626 41.1229 141.215 41.4705 140.93 41.9134C140.644 42.3564 140.498 42.8744 140.509 43.4011C140.495 43.7808 140.57 44.1586 140.727 44.5044L153.088 70.9491C153.284 71.4881 153.629 71.9604 154.083 72.3112C154.544 72.6574 155.106 72.8439 155.683 72.8424C156.291 72.851 156.888 72.6745 157.394 72.3364C157.9 71.9983 158.291 71.5145 158.516 70.9491L170.707 44.4499C170.877 44.0982 170.959 43.71 170.945 43.3194C170.952 42.7998 170.805 42.2899 170.522 41.8536C170.24 41.4174 169.835 41.0744 169.358 40.8676V40.8676Z" fill="#181318"/>
<path d="M194.784 42.4627C192.457 41.0877 189.797 40.3807 187.095 40.4196C184.329 40.3794 181.607 41.1054 179.229 42.5171C176.923 43.9246 175.058 45.9517 173.849 48.3673C172.56 50.9716 171.911 53.8456 171.955 56.7508C171.911 59.6673 172.614 62.5466 173.998 65.114C175.316 67.5494 177.285 69.5703 179.685 70.9505C182.19 72.3668 185.028 73.0886 187.905 73.0413C189.874 73.0158 191.823 72.6399 193.66 71.9312C195.485 71.3019 197.17 70.326 198.625 69.0572C198.883 68.8159 199.09 68.5251 199.234 68.2023C199.378 67.8794 199.456 67.531 199.462 67.1775C199.459 66.7824 199.366 66.3931 199.19 66.0392C199.014 65.6852 198.76 65.3759 198.448 65.1344C197.957 64.7259 197.336 64.5083 196.697 64.5215C196.009 64.5234 195.342 64.7641 194.811 65.2025L194.736 65.2706C193.878 66.0243 192.871 66.5883 191.78 66.9256C190.535 67.3639 189.225 67.594 187.905 67.6066C186.118 67.6321 184.355 67.1983 182.784 66.3467C181.286 65.5228 180.036 64.3144 179.161 62.8461C178.455 61.64 177.992 60.3074 177.799 58.9234H199.217C199.939 58.9428 200.639 58.6816 201.172 58.1946C201.439 57.9399 201.649 57.6317 201.788 57.2902C201.928 56.9487 201.994 56.5816 201.982 56.2128C202.03 53.4033 201.387 50.625 200.109 48.1221C198.9 45.7737 197.054 43.8126 194.784 42.4627ZM196.268 53.7134H177.921C178.308 51.6667 179.31 49.7871 180.795 48.3264C181.624 47.5081 182.61 46.8661 183.694 46.4389C184.778 46.0117 185.937 45.8082 187.102 45.8406C188.286 45.7959 189.468 45.9927 190.574 46.4188C191.681 46.845 192.689 47.4917 193.537 48.3196C195.001 49.7795 195.958 51.6698 196.268 53.7134V53.7134Z" fill="#181318"/>
<path d="M215.818 67.1161H214.456C214.095 67.1162 213.741 67.0164 213.433 66.8277C213.125 66.6389 212.876 66.3687 212.712 66.0468C212.1 65.0197 211.802 63.8361 211.854 62.6416V30.8167C211.866 30.4406 211.803 30.0659 211.667 29.7149C211.531 29.3639 211.326 29.0438 211.064 28.7736C210.794 28.5131 210.473 28.3101 210.122 28.1767C209.771 28.0432 209.396 27.9822 209.021 27.9972C208.296 27.9799 207.592 28.2406 207.053 28.7259C206.78 28.9897 206.565 29.3078 206.422 29.6596C206.278 30.0115 206.211 30.3894 206.222 30.7691V62.6076C206.117 65.1925 206.906 67.7346 208.456 69.8062C209.153 70.7368 210.061 71.4892 211.105 72.0017C212.149 72.5143 213.3 72.7724 214.463 72.7551H215.552C215.933 72.7658 216.311 72.6968 216.663 72.5525C217.014 72.4082 217.332 72.1919 217.595 71.9174C218.098 71.381 218.371 70.6702 218.358 69.9356C218.383 69.2136 218.141 68.5077 217.677 67.9537C217.448 67.686 217.162 67.4721 216.841 67.3273C216.52 67.1826 216.17 67.1104 215.818 67.1161V67.1161Z" fill="#181318"/>
<path d="M228.41 30.3592C227.711 29.7289 226.798 29.3881 225.856 29.4057C224.914 29.3922 224 29.7269 223.289 30.3456C222.904 30.6847 222.6 31.105 222.397 31.5761C222.195 32.0471 222.099 32.5573 222.117 33.0697C222.106 33.5578 222.192 34.0433 222.37 34.4981C222.547 34.9528 222.813 35.3678 223.153 35.719C223.496 36.0733 223.908 36.3535 224.363 36.5421C224.819 36.7307 225.309 36.8237 225.802 36.8154C226.296 36.8218 226.786 36.7293 227.243 36.5434C227.7 36.3574 228.116 36.0817 228.465 35.7326C228.814 35.3835 229.09 34.968 229.276 34.5107C229.461 34.0533 229.554 33.5634 229.548 33.0697C229.566 32.5624 229.474 32.0571 229.278 31.589C229.081 31.1209 228.785 30.7012 228.41 30.3592V30.3592Z" fill="#181318"/>
<path d="M225.858 40.6919C225.124 40.6764 224.413 40.9476 223.876 41.4479C223.601 41.7111 223.385 42.0289 223.241 42.3808C223.096 42.7327 223.027 43.1108 223.038 43.491V69.9153C223.032 70.2873 223.1 70.6569 223.24 71.0019C223.379 71.3468 223.587 71.6602 223.85 71.9234C224.113 72.1865 224.426 72.3939 224.771 72.5333C225.116 72.6727 225.486 72.7412 225.858 72.7348C226.238 72.7455 226.616 72.6765 226.968 72.5322C227.32 72.388 227.638 72.1716 227.901 71.8971C228.401 71.3601 228.672 70.6491 228.657 69.9153V43.5114C228.676 43.136 228.617 42.7607 228.482 42.4097C228.347 42.0588 228.14 41.74 227.874 41.4742C227.609 41.2084 227.29 41.0014 226.939 40.8666C226.588 40.7319 226.213 40.6723 225.837 40.6919H225.858Z" fill="#181318"/>
<path d="M264.901 47.2894C263.665 45.0599 261.798 43.245 259.534 42.0727V42.0727C257.171 40.8702 254.55 40.2624 251.9 40.302C249.717 40.2739 247.557 40.7395 245.579 41.6641C244.584 42.1393 243.647 42.7289 242.787 43.4211C242.794 43.0512 242.725 42.6839 242.585 42.3414C242.445 41.9989 242.237 41.6885 241.973 41.4292C241.709 41.1698 241.396 40.9669 241.051 40.8328C240.706 40.6987 240.337 40.6363 239.968 40.6493C239.234 40.6337 238.523 40.9049 237.986 41.4053C237.711 41.6685 237.495 41.9863 237.351 42.3381C237.206 42.69 237.137 43.0682 237.148 43.4484V69.8727C237.135 70.2465 237.199 70.6191 237.336 70.9672C237.473 71.3153 237.68 71.6315 237.944 71.896C238.209 72.1605 238.525 72.3677 238.873 72.5047C239.221 72.6417 239.594 72.7055 239.968 72.6922C240.348 72.7029 240.726 72.6339 241.078 72.4896C241.43 72.3453 241.748 72.129 242.011 71.8545C242.513 71.3181 242.787 70.6073 242.774 69.8727V53.3302C242.762 52.0108 243.162 50.7206 243.918 49.639C244.732 48.4626 245.853 47.5321 247.159 46.9489C248.642 46.2706 250.256 45.9287 251.886 45.9478C254.712 45.9478 256.919 46.731 258.642 48.3382C260.365 49.9455 261.168 52.2202 261.168 55.3393V69.934C261.168 70.6817 261.465 71.3989 261.994 71.9276C262.523 72.4564 263.24 72.7535 263.988 72.7535C264.736 72.7535 265.453 72.4564 265.982 71.9276C266.51 71.3989 266.807 70.6817 266.807 69.934V55.3393C266.88 52.5361 266.223 49.7622 264.901 47.2894V47.2894Z" fill="#181318"/>
<path d="M98.9238 27.3627C98.1802 27.3645 97.4676 27.6607 96.9418 28.1865C96.416 28.7123 96.1198 29.4249 96.118 30.1685V58.3635C96.1162 60.6894 95.1914 62.9195 93.5468 64.5641C91.9021 66.2087 89.6721 67.1335 87.3462 67.1353C86.6251 67.1708 85.9452 67.4823 85.4474 68.0052C84.9495 68.5282 84.6719 69.2226 84.6719 69.9446C84.6719 70.6666 84.9495 71.361 85.4474 71.8839C85.9452 72.4069 86.6251 72.7183 87.3462 72.7539C91.1593 72.7485 94.8147 71.2313 97.5109 68.5351C100.207 65.8388 101.724 62.1834 101.73 58.3703V30.1754C101.73 29.4306 101.434 28.7162 100.908 28.1889C100.382 27.6616 99.6686 27.3645 98.9238 27.3627V27.3627Z" fill="#181318"/>
<defs>
<linearGradient id="paint0_linear" x1="24.0056" y1="50.3692" x2="72.4138" y2="50.3692" gradientUnits="userSpaceOnUse">
<stop stop-color="#FF8C9E"/>
<stop offset="0.2" stop-color="#FF8D9B"/>
<stop offset="0.37" stop-color="#FF9291"/>
<stop offset="0.51" stop-color="#FF9980"/>
<stop offset="0.66" stop-color="#FFA368"/>
<stop offset="0.79" stop-color="#FFB049"/>
<stop offset="0.92" stop-color="#FFC024"/>
<stop offset="1" stop-color="#FFCB09"/>
</linearGradient>
</defs>
</svg>
